<mxfile>
    <diagram id="SpnergbPLLay7zpFK1qn" name="Seite-1">
        <mxGraphModel dx="1561" dy="575" grid="1" gridSize="10" guides="1" tooltips="1" connect="1" arrows="1" fold="1" page="1" pageScale="1" pageWidth="827" pageHeight="1169" math="0" shadow="0">
            <root>
                <mxCell id="0"/>
                <mxCell id="1" parent="0"/>
                <mxCell id="m5xJV0NDWJDm3_9PE0EE-1" value="&lt;b&gt;&lt;u&gt;&lt;font style=&quot;font-size: 24px&quot;&gt;UseCases&lt;/font&gt;&lt;/u&gt;&lt;/b&gt;" style="text;html=1;align=center;verticalAlign=middle;resizable=0;points=[];autosize=1;" parent="1" vertex="1">
                    <mxGeometry x="-485" y="90" width="130" height="20" as="geometry"/>
                </mxCell>
                <mxCell id="m5xJV0NDWJDm3_9PE0EE-2" value="&lt;b&gt;&lt;u&gt;&lt;font style=&quot;font-size: 18px&quot;&gt;Home-Seite aufrufen:&lt;/font&gt;&lt;/u&gt;&lt;/b&gt;" style="text;html=1;align=center;verticalAlign=middle;resizable=0;points=[];autosize=1;" parent="1" vertex="1">
                    <mxGeometry x="-790" y="160" width="200" height="20" as="geometry"/>
                </mxCell>
                <mxCell id="m5xJV0NDWJDm3_9PE0EE-3" value="&lt;b&gt;index.html&lt;br&gt;- raw.html -&lt;br&gt;&lt;/b&gt;" style="rounded=0;whiteSpace=wrap;html=1;" parent="1" vertex="1">
                    <mxGeometry x="-443" y="220" width="140" height="40" as="geometry"/>
                </mxCell>
                <mxCell id="m5xJV0NDWJDm3_9PE0EE-20" style="edgeStyle=orthogonalEdgeStyle;rounded=0;orthogonalLoop=1;jettySize=auto;html=1;exitX=1;exitY=0.5;exitDx=0;exitDy=0;" parent="1" source="m5xJV0NDWJDm3_9PE0EE-7" target="m5xJV0NDWJDm3_9PE0EE-3" edge="1">
                    <mxGeometry relative="1" as="geometry"/>
                </mxCell>
                <mxCell id="m5xJV0NDWJDm3_9PE0EE-53" style="edgeStyle=orthogonalEdgeStyle;rounded=0;orthogonalLoop=1;jettySize=auto;html=1;exitX=0.5;exitY=1;exitDx=0;exitDy=0;entryX=0.5;entryY=0;entryDx=0;entryDy=0;" parent="1" source="m5xJV0NDWJDm3_9PE0EE-7" target="m5xJV0NDWJDm3_9PE0EE-9" edge="1">
                    <mxGeometry relative="1" as="geometry"/>
                </mxCell>
                <mxCell id="m5xJV0NDWJDm3_9PE0EE-7" value="&lt;b&gt;Views.py&lt;/b&gt;&lt;br&gt;index()" style="rounded=0;whiteSpace=wrap;html=1;" parent="1" vertex="1">
                    <mxGeometry x="-623" y="220" width="140" height="40" as="geometry"/>
                </mxCell>
                <mxCell id="m5xJV0NDWJDm3_9PE0EE-9" value="&lt;b&gt;legerible.py&lt;/b&gt;&lt;br&gt;get_select()" style="rounded=0;whiteSpace=wrap;html=1;" parent="1" vertex="1">
                    <mxGeometry x="-625" y="280" width="140" height="40" as="geometry"/>
                </mxCell>
                <mxCell id="m5xJV0NDWJDm3_9PE0EE-11" value="&lt;b&gt;&lt;u&gt;&lt;font style=&quot;font-size: 18px&quot;&gt;Books-Seite aufrufen:&lt;/font&gt;&lt;/u&gt;&lt;/b&gt;" style="text;html=1;align=center;verticalAlign=middle;resizable=0;points=[];autosize=1;" parent="1" vertex="1">
                    <mxGeometry x="-798.5" y="350" width="200" height="20" as="geometry"/>
                </mxCell>
                <mxCell id="m5xJV0NDWJDm3_9PE0EE-14" value="&lt;b&gt;Books.html&lt;br&gt;- raw.html -&lt;br&gt;&lt;/b&gt;" style="rounded=0;whiteSpace=wrap;html=1;" parent="1" vertex="1">
                    <mxGeometry x="-443" y="400" width="140" height="40" as="geometry"/>
                </mxCell>
                <mxCell id="m5xJV0NDWJDm3_9PE0EE-22" style="edgeStyle=orthogonalEdgeStyle;rounded=0;orthogonalLoop=1;jettySize=auto;html=1;exitX=1;exitY=0.5;exitDx=0;exitDy=0;" parent="1" source="m5xJV0NDWJDm3_9PE0EE-17" target="m5xJV0NDWJDm3_9PE0EE-14" edge="1">
                    <mxGeometry relative="1" as="geometry"/>
                </mxCell>
                <mxCell id="m5xJV0NDWJDm3_9PE0EE-54" style="edgeStyle=orthogonalEdgeStyle;rounded=0;orthogonalLoop=1;jettySize=auto;html=1;exitX=0.5;exitY=1;exitDx=0;exitDy=0;entryX=0.5;entryY=0;entryDx=0;entryDy=0;" parent="1" source="m5xJV0NDWJDm3_9PE0EE-17" target="m5xJV0NDWJDm3_9PE0EE-18" edge="1">
                    <mxGeometry relative="1" as="geometry"/>
                </mxCell>
                <mxCell id="m5xJV0NDWJDm3_9PE0EE-17" value="&lt;b&gt;Views.py&lt;/b&gt;&lt;br&gt;book()" style="rounded=0;whiteSpace=wrap;html=1;" parent="1" vertex="1">
                    <mxGeometry x="-621.5" y="400" width="140" height="40" as="geometry"/>
                </mxCell>
                <mxCell id="m5xJV0NDWJDm3_9PE0EE-18" value="&lt;b&gt;legerible.py&lt;/b&gt;&lt;br&gt;get_select()" style="rounded=0;whiteSpace=wrap;html=1;" parent="1" vertex="1">
                    <mxGeometry x="-625" y="460" width="140" height="40" as="geometry"/>
                </mxCell>
                <mxCell id="m5xJV0NDWJDm3_9PE0EE-24" style="edgeStyle=orthogonalEdgeStyle;rounded=0;orthogonalLoop=1;jettySize=auto;html=1;exitX=1;exitY=0.5;exitDx=0;exitDy=0;entryX=0;entryY=0.5;entryDx=0;entryDy=0;" parent="1" source="m5xJV0NDWJDm3_9PE0EE-23" target="m5xJV0NDWJDm3_9PE0EE-7" edge="1">
                    <mxGeometry relative="1" as="geometry"/>
                </mxCell>
                <mxCell id="m5xJV0NDWJDm3_9PE0EE-23" value="&lt;b&gt;app.route('/')&lt;/b&gt;" style="rounded=0;whiteSpace=wrap;html=1;" parent="1" vertex="1">
                    <mxGeometry x="-790" y="220" width="140" height="40" as="geometry"/>
                </mxCell>
                <mxCell id="m5xJV0NDWJDm3_9PE0EE-26" style="edgeStyle=orthogonalEdgeStyle;rounded=0;orthogonalLoop=1;jettySize=auto;html=1;exitX=1;exitY=0.5;exitDx=0;exitDy=0;entryX=0;entryY=0.5;entryDx=0;entryDy=0;" parent="1" source="m5xJV0NDWJDm3_9PE0EE-25" target="m5xJV0NDWJDm3_9PE0EE-17" edge="1">
                    <mxGeometry relative="1" as="geometry"/>
                </mxCell>
                <mxCell id="m5xJV0NDWJDm3_9PE0EE-25" value="&lt;b&gt;app.route('/book')&lt;/b&gt;" style="rounded=0;whiteSpace=wrap;html=1;" parent="1" vertex="1">
                    <mxGeometry x="-788.5" y="400" width="140" height="40" as="geometry"/>
                </mxCell>
                <mxCell id="m5xJV0NDWJDm3_9PE0EE-27" value="&lt;b&gt;&lt;u&gt;&lt;font style=&quot;font-size: 18px&quot;&gt;Profile-Seite aufrufen:&lt;/font&gt;&lt;/u&gt;&lt;/b&gt;" style="text;html=1;align=center;verticalAlign=middle;resizable=0;points=[];autosize=1;" parent="1" vertex="1">
                    <mxGeometry x="-798.5" y="530" width="200" height="20" as="geometry"/>
                </mxCell>
                <mxCell id="m5xJV0NDWJDm3_9PE0EE-28" value="&lt;b&gt;profile.html&lt;br&gt;- raw.html -&lt;br&gt;&lt;/b&gt;" style="rounded=0;whiteSpace=wrap;html=1;" parent="1" vertex="1">
                    <mxGeometry x="-287" y="590" width="140" height="40" as="geometry"/>
                </mxCell>
                <mxCell id="m5xJV0NDWJDm3_9PE0EE-29" style="edgeStyle=orthogonalEdgeStyle;rounded=0;orthogonalLoop=1;jettySize=auto;html=1;exitX=1;exitY=0.5;exitDx=0;exitDy=0;entryX=0;entryY=0.5;entryDx=0;entryDy=0;" parent="1" source="m5xJV0NDWJDm3_9PE0EE-31" target="m5xJV0NDWJDm3_9PE0EE-32" edge="1">
                    <mxGeometry relative="1" as="geometry">
                        <Array as="points">
                            <mxPoint x="-427" y="640"/>
                            <mxPoint x="-427" y="670"/>
                        </Array>
                    </mxGeometry>
                </mxCell>
                <mxCell id="m5xJV0NDWJDm3_9PE0EE-36" value="not logged in" style="edgeLabel;html=1;align=center;verticalAlign=middle;resizable=0;points=[];" parent="m5xJV0NDWJDm3_9PE0EE-29" vertex="1" connectable="0">
                    <mxGeometry x="0.2677" y="-1" relative="1" as="geometry">
                        <mxPoint as="offset"/>
                    </mxGeometry>
                </mxCell>
                <mxCell id="m5xJV0NDWJDm3_9PE0EE-30" style="edgeStyle=orthogonalEdgeStyle;rounded=0;orthogonalLoop=1;jettySize=auto;html=1;exitX=1;exitY=0.5;exitDx=0;exitDy=0;" parent="1" source="m5xJV0NDWJDm3_9PE0EE-31" target="m5xJV0NDWJDm3_9PE0EE-28" edge="1">
                    <mxGeometry relative="1" as="geometry">
                        <Array as="points">
                            <mxPoint x="-427" y="640"/>
                            <mxPoint x="-427" y="610"/>
                        </Array>
                    </mxGeometry>
                </mxCell>
                <mxCell id="m5xJV0NDWJDm3_9PE0EE-35" value="logged in" style="edgeLabel;html=1;align=center;verticalAlign=middle;resizable=0;points=[];" parent="m5xJV0NDWJDm3_9PE0EE-30" vertex="1" connectable="0">
                    <mxGeometry x="0.2855" y="2" relative="1" as="geometry">
                        <mxPoint as="offset"/>
                    </mxGeometry>
                </mxCell>
                <mxCell id="m5xJV0NDWJDm3_9PE0EE-31" value="&lt;b&gt;Views.py&lt;/b&gt;&lt;br&gt;profile()" style="rounded=0;whiteSpace=wrap;html=1;" parent="1" vertex="1">
                    <mxGeometry x="-621.5" y="620" width="140" height="40" as="geometry"/>
                </mxCell>
                <mxCell id="m5xJV0NDWJDm3_9PE0EE-32" value="&lt;b&gt;fail.html&lt;br&gt;- raw.html -&lt;br&gt;&lt;/b&gt;" style="rounded=0;whiteSpace=wrap;html=1;" parent="1" vertex="1">
                    <mxGeometry x="-287" y="650" width="140" height="40" as="geometry"/>
                </mxCell>
                <mxCell id="m5xJV0NDWJDm3_9PE0EE-33" style="edgeStyle=orthogonalEdgeStyle;rounded=0;orthogonalLoop=1;jettySize=auto;html=1;exitX=1;exitY=0.5;exitDx=0;exitDy=0;entryX=0;entryY=0.5;entryDx=0;entryDy=0;" parent="1" source="m5xJV0NDWJDm3_9PE0EE-34" target="m5xJV0NDWJDm3_9PE0EE-31" edge="1">
                    <mxGeometry relative="1" as="geometry"/>
                </mxCell>
                <mxCell id="m5xJV0NDWJDm3_9PE0EE-34" value="&lt;b&gt;app.route('/profile')&lt;/b&gt;" style="rounded=0;whiteSpace=wrap;html=1;" parent="1" vertex="1">
                    <mxGeometry x="-788.5" y="620" width="140" height="40" as="geometry"/>
                </mxCell>
                <mxCell id="m5xJV0NDWJDm3_9PE0EE-37" value="&lt;b&gt;&lt;u&gt;&lt;font style=&quot;font-size: 18px&quot;&gt;Loans-Seite aufrufen:&lt;/font&gt;&lt;/u&gt;&lt;/b&gt;" style="text;html=1;align=center;verticalAlign=middle;resizable=0;points=[];autosize=1;" parent="1" vertex="1">
                    <mxGeometry x="-800" y="730" width="200" height="20" as="geometry"/>
                </mxCell>
                <mxCell id="m5xJV0NDWJDm3_9PE0EE-38" value="&lt;b&gt;Loans.html&lt;br&gt;- raw.html -&lt;br&gt;&lt;/b&gt;" style="rounded=0;whiteSpace=wrap;html=1;" parent="1" vertex="1">
                    <mxGeometry x="-443" y="790" width="140" height="40" as="geometry"/>
                </mxCell>
                <mxCell id="m5xJV0NDWJDm3_9PE0EE-40" style="edgeStyle=orthogonalEdgeStyle;rounded=0;orthogonalLoop=1;jettySize=auto;html=1;exitX=1;exitY=0.5;exitDx=0;exitDy=0;" parent="1" source="m5xJV0NDWJDm3_9PE0EE-41" target="m5xJV0NDWJDm3_9PE0EE-38" edge="1">
                    <mxGeometry relative="1" as="geometry"/>
                </mxCell>
                <mxCell id="m5xJV0NDWJDm3_9PE0EE-55" style="edgeStyle=orthogonalEdgeStyle;rounded=0;orthogonalLoop=1;jettySize=auto;html=1;exitX=0.5;exitY=1;exitDx=0;exitDy=0;entryX=0.5;entryY=0;entryDx=0;entryDy=0;" parent="1" source="m5xJV0NDWJDm3_9PE0EE-41" target="m5xJV0NDWJDm3_9PE0EE-42" edge="1">
                    <mxGeometry relative="1" as="geometry"/>
                </mxCell>
                <mxCell id="m5xJV0NDWJDm3_9PE0EE-41" value="&lt;b&gt;Views.py&lt;/b&gt;&lt;br&gt;loans()" style="rounded=0;whiteSpace=wrap;html=1;" parent="1" vertex="1">
                    <mxGeometry x="-621.5" y="790" width="140" height="40" as="geometry"/>
                </mxCell>
                <mxCell id="m5xJV0NDWJDm3_9PE0EE-42" value="&lt;b&gt;legerible.py&lt;/b&gt;&lt;br&gt;get_select()" style="rounded=0;whiteSpace=wrap;html=1;" parent="1" vertex="1">
                    <mxGeometry x="-623" y="850" width="140" height="40" as="geometry"/>
                </mxCell>
                <mxCell id="m5xJV0NDWJDm3_9PE0EE-43" style="edgeStyle=orthogonalEdgeStyle;rounded=0;orthogonalLoop=1;jettySize=auto;html=1;exitX=1;exitY=0.5;exitDx=0;exitDy=0;entryX=0;entryY=0.5;entryDx=0;entryDy=0;" parent="1" source="m5xJV0NDWJDm3_9PE0EE-44" target="m5xJV0NDWJDm3_9PE0EE-41" edge="1">
                    <mxGeometry relative="1" as="geometry"/>
                </mxCell>
                <mxCell id="m5xJV0NDWJDm3_9PE0EE-44" value="&lt;b&gt;app.route('/loans')&lt;/b&gt;" style="rounded=0;whiteSpace=wrap;html=1;" parent="1" vertex="1">
                    <mxGeometry x="-788.5" y="790" width="140" height="40" as="geometry"/>
                </mxCell>
                <mxCell id="m5xJV0NDWJDm3_9PE0EE-45" value="&lt;b&gt;&lt;u&gt;&lt;font style=&quot;font-size: 18px&quot;&gt;Search Book:&lt;/font&gt;&lt;/u&gt;&lt;/b&gt;" style="text;html=1;align=center;verticalAlign=middle;resizable=0;points=[];autosize=1;" parent="1" vertex="1">
                    <mxGeometry x="-788.5" y="930" width="130" height="20" as="geometry"/>
                </mxCell>
                <mxCell id="m5xJV0NDWJDm3_9PE0EE-46" value="&lt;b&gt;Books.html&lt;br&gt;- raw.html -&lt;br&gt;&lt;/b&gt;" style="rounded=0;whiteSpace=wrap;html=1;" parent="1" vertex="1">
                    <mxGeometry x="-287" y="960" width="140" height="40" as="geometry"/>
                </mxCell>
                <mxCell id="m5xJV0NDWJDm3_9PE0EE-48" value="Book found" style="edgeStyle=orthogonalEdgeStyle;rounded=0;orthogonalLoop=1;jettySize=auto;html=1;exitX=1;exitY=0.5;exitDx=0;exitDy=0;" parent="1" source="m5xJV0NDWJDm3_9PE0EE-49" target="m5xJV0NDWJDm3_9PE0EE-46" edge="1">
                    <mxGeometry x="0.3464" relative="1" as="geometry">
                        <Array as="points">
                            <mxPoint x="-430" y="1010"/>
                            <mxPoint x="-430" y="980"/>
                        </Array>
                        <mxPoint as="offset"/>
                    </mxGeometry>
                </mxCell>
                <mxCell id="m5xJV0NDWJDm3_9PE0EE-56" style="edgeStyle=orthogonalEdgeStyle;rounded=0;orthogonalLoop=1;jettySize=auto;html=1;exitX=0.5;exitY=1;exitDx=0;exitDy=0;entryX=0.5;entryY=0;entryDx=0;entryDy=0;" parent="1" source="m5xJV0NDWJDm3_9PE0EE-49" target="m5xJV0NDWJDm3_9PE0EE-50" edge="1">
                    <mxGeometry relative="1" as="geometry"/>
                </mxCell>
                <mxCell id="m5xJV0NDWJDm3_9PE0EE-58" value="Book not found" style="edgeStyle=orthogonalEdgeStyle;rounded=0;orthogonalLoop=1;jettySize=auto;html=1;exitX=1;exitY=0.5;exitDx=0;exitDy=0;" parent="1" source="m5xJV0NDWJDm3_9PE0EE-49" target="m5xJV0NDWJDm3_9PE0EE-57" edge="1">
                    <mxGeometry x="0.3007" relative="1" as="geometry">
                        <Array as="points">
                            <mxPoint x="-430" y="1010"/>
                            <mxPoint x="-430" y="1030"/>
                        </Array>
                        <mxPoint as="offset"/>
                    </mxGeometry>
                </mxCell>
                <mxCell id="m5xJV0NDWJDm3_9PE0EE-49" value="&lt;b&gt;Views.py&lt;/b&gt;&lt;br&gt;search_books()" style="rounded=0;whiteSpace=wrap;html=1;" parent="1" vertex="1">
                    <mxGeometry x="-593" y="990" width="140" height="40" as="geometry"/>
                </mxCell>
                <mxCell id="m5xJV0NDWJDm3_9PE0EE-50" value="&lt;b&gt;legerible.py&lt;/b&gt;&lt;br&gt;get_select()" style="rounded=0;whiteSpace=wrap;html=1;" parent="1" vertex="1">
                    <mxGeometry x="-593" y="1050" width="140" height="40" as="geometry"/>
                </mxCell>
                <mxCell id="m5xJV0NDWJDm3_9PE0EE-51" style="edgeStyle=orthogonalEdgeStyle;rounded=0;orthogonalLoop=1;jettySize=auto;html=1;exitX=1;exitY=0.5;exitDx=0;exitDy=0;entryX=0;entryY=0.5;entryDx=0;entryDy=0;" parent="1" source="m5xJV0NDWJDm3_9PE0EE-52" target="m5xJV0NDWJDm3_9PE0EE-49" edge="1">
                    <mxGeometry relative="1" as="geometry"/>
                </mxCell>
                <mxCell id="m5xJV0NDWJDm3_9PE0EE-52" value="&lt;b&gt;app.route('/search_book')&lt;/b&gt;" style="rounded=0;whiteSpace=wrap;html=1;" parent="1" vertex="1">
                    <mxGeometry x="-790" y="990" width="170" height="40" as="geometry"/>
                </mxCell>
                <mxCell id="m5xJV0NDWJDm3_9PE0EE-57" value="&lt;b&gt;fail.html&lt;br&gt;- raw.html -&lt;br&gt;&lt;/b&gt;" style="rounded=0;whiteSpace=wrap;html=1;" parent="1" vertex="1">
                    <mxGeometry x="-287" y="1010" width="140" height="40" as="geometry"/>
                </mxCell>
                <mxCell id="m5xJV0NDWJDm3_9PE0EE-59" value="&lt;b&gt;&lt;u&gt;&lt;font style=&quot;font-size: 18px&quot;&gt;Search Loans:&lt;/font&gt;&lt;/u&gt;&lt;/b&gt;" style="text;html=1;align=center;verticalAlign=middle;resizable=0;points=[];autosize=1;" parent="1" vertex="1">
                    <mxGeometry x="-802" y="1110" width="140" height="20" as="geometry"/>
                </mxCell>
                <mxCell id="m5xJV0NDWJDm3_9PE0EE-60" value="&lt;b&gt;Loans.html&lt;br&gt;- raw.html -&lt;br&gt;&lt;/b&gt;" style="rounded=0;whiteSpace=wrap;html=1;" parent="1" vertex="1">
                    <mxGeometry x="-295.5" y="1140" width="140" height="40" as="geometry"/>
                </mxCell>
                <mxCell id="m5xJV0NDWJDm3_9PE0EE-61" value="Loans found" style="edgeStyle=orthogonalEdgeStyle;rounded=0;orthogonalLoop=1;jettySize=auto;html=1;exitX=1;exitY=0.5;exitDx=0;exitDy=0;" parent="1" source="m5xJV0NDWJDm3_9PE0EE-64" target="m5xJV0NDWJDm3_9PE0EE-60" edge="1">
                    <mxGeometry x="0.3464" relative="1" as="geometry">
                        <Array as="points">
                            <mxPoint x="-438.5" y="1190"/>
                            <mxPoint x="-438.5" y="1160"/>
                        </Array>
                        <mxPoint as="offset"/>
                    </mxGeometry>
                </mxCell>
                <mxCell id="m5xJV0NDWJDm3_9PE0EE-62" style="edgeStyle=orthogonalEdgeStyle;rounded=0;orthogonalLoop=1;jettySize=auto;html=1;exitX=0.5;exitY=1;exitDx=0;exitDy=0;entryX=0.5;entryY=0;entryDx=0;entryDy=0;" parent="1" source="m5xJV0NDWJDm3_9PE0EE-64" target="m5xJV0NDWJDm3_9PE0EE-65" edge="1">
                    <mxGeometry relative="1" as="geometry"/>
                </mxCell>
                <mxCell id="m5xJV0NDWJDm3_9PE0EE-63" value="Loans not found" style="edgeStyle=orthogonalEdgeStyle;rounded=0;orthogonalLoop=1;jettySize=auto;html=1;exitX=1;exitY=0.5;exitDx=0;exitDy=0;" parent="1" source="m5xJV0NDWJDm3_9PE0EE-64" target="m5xJV0NDWJDm3_9PE0EE-68" edge="1">
                    <mxGeometry x="0.3007" relative="1" as="geometry">
                        <Array as="points">
                            <mxPoint x="-438.5" y="1190"/>
                            <mxPoint x="-438.5" y="1210"/>
                        </Array>
                        <mxPoint as="offset"/>
                    </mxGeometry>
                </mxCell>
                <mxCell id="m5xJV0NDWJDm3_9PE0EE-64" value="&lt;b&gt;Views.py&lt;/b&gt;&lt;br&gt;search_loans()" style="rounded=0;whiteSpace=wrap;html=1;" parent="1" vertex="1">
                    <mxGeometry x="-601.5" y="1170" width="140" height="40" as="geometry"/>
                </mxCell>
                <mxCell id="m5xJV0NDWJDm3_9PE0EE-65" value="&lt;b&gt;legerible.py&lt;/b&gt;&lt;br&gt;get_select()" style="rounded=0;whiteSpace=wrap;html=1;" parent="1" vertex="1">
                    <mxGeometry x="-601.5" y="1230" width="140" height="40" as="geometry"/>
                </mxCell>
                <mxCell id="m5xJV0NDWJDm3_9PE0EE-66" style="edgeStyle=orthogonalEdgeStyle;rounded=0;orthogonalLoop=1;jettySize=auto;html=1;exitX=1;exitY=0.5;exitDx=0;exitDy=0;entryX=0;entryY=0.5;entryDx=0;entryDy=0;" parent="1" source="m5xJV0NDWJDm3_9PE0EE-67" target="m5xJV0NDWJDm3_9PE0EE-64" edge="1">
                    <mxGeometry relative="1" as="geometry"/>
                </mxCell>
                <mxCell id="m5xJV0NDWJDm3_9PE0EE-67" value="&lt;b&gt;app.route('/search_loans')&lt;/b&gt;" style="rounded=0;whiteSpace=wrap;html=1;" parent="1" vertex="1">
                    <mxGeometry x="-798.5" y="1170" width="170" height="40" as="geometry"/>
                </mxCell>
                <mxCell id="m5xJV0NDWJDm3_9PE0EE-68" value="&lt;b&gt;fail.html&lt;br&gt;- raw.html -&lt;br&gt;&lt;/b&gt;" style="rounded=0;whiteSpace=wrap;html=1;" parent="1" vertex="1">
                    <mxGeometry x="-295.5" y="1190" width="140" height="40" as="geometry"/>
                </mxCell>
                <mxCell id="m5xJV0NDWJDm3_9PE0EE-69" value="&lt;b&gt;&lt;u&gt;&lt;font style=&quot;font-size: 18px&quot;&gt;LogIn-Prozess:&lt;/font&gt;&lt;/u&gt;&lt;/b&gt;" style="text;html=1;align=center;verticalAlign=middle;resizable=0;points=[];autosize=1;" parent="1" vertex="1">
                    <mxGeometry x="-802" y="1460" width="150" height="20" as="geometry"/>
                </mxCell>
                <mxCell id="m5xJV0NDWJDm3_9PE0EE-70" value="&lt;b&gt;success.html&lt;br&gt;- raw.html -&lt;br&gt;&lt;/b&gt;" style="rounded=0;whiteSpace=wrap;html=1;" parent="1" vertex="1">
                    <mxGeometry x="-263.5" y="1490" width="140" height="40" as="geometry"/>
                </mxCell>
                <mxCell id="m5xJV0NDWJDm3_9PE0EE-71" value="User and password correct" style="edgeStyle=orthogonalEdgeStyle;rounded=0;orthogonalLoop=1;jettySize=auto;html=1;exitX=1;exitY=0.5;exitDx=0;exitDy=0;" parent="1" source="m5xJV0NDWJDm3_9PE0EE-74" target="m5xJV0NDWJDm3_9PE0EE-70" edge="1">
                    <mxGeometry x="0.2105" relative="1" as="geometry">
                        <Array as="points">
                            <mxPoint x="-438.5" y="1540"/>
                            <mxPoint x="-438.5" y="1510"/>
                        </Array>
                        <mxPoint as="offset"/>
                    </mxGeometry>
                </mxCell>
                <mxCell id="m5xJV0NDWJDm3_9PE0EE-72" style="edgeStyle=orthogonalEdgeStyle;rounded=0;orthogonalLoop=1;jettySize=auto;html=1;exitX=0.5;exitY=1;exitDx=0;exitDy=0;entryX=0.5;entryY=0;entryDx=0;entryDy=0;" parent="1" source="m5xJV0NDWJDm3_9PE0EE-74" target="m5xJV0NDWJDm3_9PE0EE-75" edge="1">
                    <mxGeometry relative="1" as="geometry"/>
                </mxCell>
                <mxCell id="m5xJV0NDWJDm3_9PE0EE-73" value="User or password incorrect" style="edgeStyle=orthogonalEdgeStyle;rounded=0;orthogonalLoop=1;jettySize=auto;html=1;exitX=1;exitY=0.5;exitDx=0;exitDy=0;" parent="1" source="m5xJV0NDWJDm3_9PE0EE-74" target="m5xJV0NDWJDm3_9PE0EE-78" edge="1">
                    <mxGeometry x="0.1743" relative="1" as="geometry">
                        <Array as="points">
                            <mxPoint x="-438.5" y="1540"/>
                            <mxPoint x="-438.5" y="1560"/>
                        </Array>
                        <mxPoint as="offset"/>
                    </mxGeometry>
                </mxCell>
                <mxCell id="m5xJV0NDWJDm3_9PE0EE-74" value="&lt;b&gt;Views.py&lt;/b&gt;&lt;br&gt;logged_in()" style="rounded=0;whiteSpace=wrap;html=1;" parent="1" vertex="1">
                    <mxGeometry x="-601.5" y="1520" width="140" height="40" as="geometry"/>
                </mxCell>
                <mxCell id="m5xJV0NDWJDm3_9PE0EE-75" value="&lt;b&gt;legerible.py&lt;/b&gt;&lt;br&gt;set_user()" style="rounded=0;whiteSpace=wrap;html=1;" parent="1" vertex="1">
                    <mxGeometry x="-601.5" y="1580" width="140" height="40" as="geometry"/>
                </mxCell>
                <mxCell id="m5xJV0NDWJDm3_9PE0EE-76" style="edgeStyle=orthogonalEdgeStyle;rounded=0;orthogonalLoop=1;jettySize=auto;html=1;exitX=1;exitY=0.5;exitDx=0;exitDy=0;entryX=0;entryY=0.5;entryDx=0;entryDy=0;" parent="1" source="m5xJV0NDWJDm3_9PE0EE-77" target="m5xJV0NDWJDm3_9PE0EE-74" edge="1">
                    <mxGeometry relative="1" as="geometry"/>
                </mxCell>
                <mxCell id="m5xJV0NDWJDm3_9PE0EE-77" value="&lt;b&gt;app.route('/logged_in')&lt;/b&gt;" style="rounded=0;whiteSpace=wrap;html=1;" parent="1" vertex="1">
                    <mxGeometry x="-798.5" y="1520" width="170" height="40" as="geometry"/>
                </mxCell>
                <mxCell id="m5xJV0NDWJDm3_9PE0EE-78" value="&lt;b&gt;fail.html&lt;br&gt;- raw.html -&lt;br&gt;&lt;/b&gt;" style="rounded=0;whiteSpace=wrap;html=1;" parent="1" vertex="1">
                    <mxGeometry x="-263.5" y="1540" width="140" height="40" as="geometry"/>
                </mxCell>
                <mxCell id="m5xJV0NDWJDm3_9PE0EE-79" value="&lt;b&gt;&lt;u&gt;&lt;font style=&quot;font-size: 18px&quot;&gt;LogIn-Seite aufrufen:&lt;/font&gt;&lt;/u&gt;&lt;/b&gt;" style="text;html=1;align=center;verticalAlign=middle;resizable=0;points=[];autosize=1;" parent="1" vertex="1">
                    <mxGeometry x="-802" y="1320" width="200" height="20" as="geometry"/>
                </mxCell>
                <mxCell id="m5xJV0NDWJDm3_9PE0EE-80" value="&lt;b&gt;login.html&lt;br&gt;- raw.html -&lt;br&gt;&lt;/b&gt;" style="rounded=0;whiteSpace=wrap;html=1;" parent="1" vertex="1">
                    <mxGeometry x="-455" y="1380" width="140" height="40" as="geometry"/>
                </mxCell>
                <mxCell id="m5xJV0NDWJDm3_9PE0EE-81" style="edgeStyle=orthogonalEdgeStyle;rounded=0;orthogonalLoop=1;jettySize=auto;html=1;exitX=1;exitY=0.5;exitDx=0;exitDy=0;" parent="1" source="m5xJV0NDWJDm3_9PE0EE-83" target="m5xJV0NDWJDm3_9PE0EE-80" edge="1">
                    <mxGeometry relative="1" as="geometry"/>
                </mxCell>
                <mxCell id="m5xJV0NDWJDm3_9PE0EE-83" value="&lt;b&gt;Views.py&lt;/b&gt;&lt;br&gt;index()" style="rounded=0;whiteSpace=wrap;html=1;" parent="1" vertex="1">
                    <mxGeometry x="-635" y="1380" width="140" height="40" as="geometry"/>
                </mxCell>
                <mxCell id="m5xJV0NDWJDm3_9PE0EE-85" style="edgeStyle=orthogonalEdgeStyle;rounded=0;orthogonalLoop=1;jettySize=auto;html=1;exitX=1;exitY=0.5;exitDx=0;exitDy=0;entryX=0;entryY=0.5;entryDx=0;entryDy=0;" parent="1" source="m5xJV0NDWJDm3_9PE0EE-86" target="m5xJV0NDWJDm3_9PE0EE-83" edge="1">
                    <mxGeometry relative="1" as="geometry"/>
                </mxCell>
                <mxCell id="m5xJV0NDWJDm3_9PE0EE-86" value="&lt;b&gt;app.route('/login')&lt;/b&gt;" style="rounded=0;whiteSpace=wrap;html=1;" parent="1" vertex="1">
                    <mxGeometry x="-802" y="1380" width="140" height="40" as="geometry"/>
                </mxCell>
                <mxCell id="m5xJV0NDWJDm3_9PE0EE-87" value="&lt;b&gt;&lt;u&gt;&lt;font style=&quot;font-size: 18px&quot;&gt;LogOut-Prozess:&lt;/font&gt;&lt;/u&gt;&lt;/b&gt;" style="text;html=1;align=center;verticalAlign=middle;resizable=0;points=[];autosize=1;" parent="1" vertex="1">
                    <mxGeometry x="-803.5" y="1640" width="160" height="20" as="geometry"/>
                </mxCell>
                <mxCell id="m5xJV0NDWJDm3_9PE0EE-88" value="&lt;b&gt;success.html&lt;br&gt;- raw.html -&lt;br&gt;&lt;/b&gt;" style="rounded=0;whiteSpace=wrap;html=1;" parent="1" vertex="1">
                    <mxGeometry x="-427" y="1700" width="140" height="40" as="geometry"/>
                </mxCell>
                <mxCell id="m5xJV0NDWJDm3_9PE0EE-90" style="edgeStyle=orthogonalEdgeStyle;rounded=0;orthogonalLoop=1;jettySize=auto;html=1;exitX=0.5;exitY=1;exitDx=0;exitDy=0;entryX=0.5;entryY=0;entryDx=0;entryDy=0;" parent="1" source="m5xJV0NDWJDm3_9PE0EE-92" target="m5xJV0NDWJDm3_9PE0EE-93" edge="1">
                    <mxGeometry relative="1" as="geometry"/>
                </mxCell>
                <mxCell id="m5xJV0NDWJDm3_9PE0EE-97" style="edgeStyle=orthogonalEdgeStyle;rounded=0;orthogonalLoop=1;jettySize=auto;html=1;exitX=1;exitY=0.5;exitDx=0;exitDy=0;entryX=0;entryY=0.5;entryDx=0;entryDy=0;" parent="1" source="m5xJV0NDWJDm3_9PE0EE-92" target="m5xJV0NDWJDm3_9PE0EE-88" edge="1">
                    <mxGeometry relative="1" as="geometry"/>
                </mxCell>
                <mxCell id="m5xJV0NDWJDm3_9PE0EE-92" value="&lt;b&gt;Views.py&lt;/b&gt;&lt;br&gt;logout()" style="rounded=0;whiteSpace=wrap;html=1;" parent="1" vertex="1">
                    <mxGeometry x="-598" y="1700" width="140" height="40" as="geometry"/>
                </mxCell>
                <mxCell id="m5xJV0NDWJDm3_9PE0EE-93" value="&lt;b&gt;legerible.py&lt;/b&gt;&lt;br&gt;s_user" style="rounded=0;whiteSpace=wrap;html=1;" parent="1" vertex="1">
                    <mxGeometry x="-598" y="1760" width="140" height="40" as="geometry"/>
                </mxCell>
                <mxCell id="m5xJV0NDWJDm3_9PE0EE-94" style="edgeStyle=orthogonalEdgeStyle;rounded=0;orthogonalLoop=1;jettySize=auto;html=1;exitX=1;exitY=0.5;exitDx=0;exitDy=0;entryX=0;entryY=0.5;entryDx=0;entryDy=0;" parent="1" source="m5xJV0NDWJDm3_9PE0EE-95" target="m5xJV0NDWJDm3_9PE0EE-92" edge="1">
                    <mxGeometry relative="1" as="geometry"/>
                </mxCell>
                <mxCell id="m5xJV0NDWJDm3_9PE0EE-95" value="&lt;b&gt;app.route('/logout')&lt;/b&gt;" style="rounded=0;whiteSpace=wrap;html=1;" parent="1" vertex="1">
                    <mxGeometry x="-795" y="1700" width="170" height="40" as="geometry"/>
                </mxCell>
                <mxCell id="m5xJV0NDWJDm3_9PE0EE-98" value="&lt;b&gt;&lt;u&gt;&lt;font style=&quot;font-size: 18px&quot;&gt;Loan One Book-Prozess:&lt;/font&gt;&lt;/u&gt;&lt;/b&gt;" style="text;html=1;align=center;verticalAlign=middle;resizable=0;points=[];autosize=1;" parent="1" vertex="1">
                    <mxGeometry x="-805" y="1840" width="230" height="20" as="geometry"/>
                </mxCell>
                <mxCell id="m5xJV0NDWJDm3_9PE0EE-99" value="&lt;b&gt;success.html&lt;br&gt;- raw.html -&lt;br&gt;&lt;/b&gt;" style="rounded=0;whiteSpace=wrap;html=1;" parent="1" vertex="1">
                    <mxGeometry x="-435.5" y="1900" width="140" height="40" as="geometry"/>
                </mxCell>
                <mxCell id="m5xJV0NDWJDm3_9PE0EE-100" style="edgeStyle=orthogonalEdgeStyle;rounded=0;orthogonalLoop=1;jettySize=auto;html=1;exitX=0.5;exitY=1;exitDx=0;exitDy=0;entryX=0.5;entryY=0;entryDx=0;entryDy=0;" parent="1" source="m5xJV0NDWJDm3_9PE0EE-102" target="m5xJV0NDWJDm3_9PE0EE-103" edge="1">
                    <mxGeometry relative="1" as="geometry"/>
                </mxCell>
                <mxCell id="m5xJV0NDWJDm3_9PE0EE-101" style="edgeStyle=orthogonalEdgeStyle;rounded=0;orthogonalLoop=1;jettySize=auto;html=1;exitX=1;exitY=0.5;exitDx=0;exitDy=0;entryX=0;entryY=0.5;entryDx=0;entryDy=0;" parent="1" source="m5xJV0NDWJDm3_9PE0EE-102" target="m5xJV0NDWJDm3_9PE0EE-99" edge="1">
                    <mxGeometry relative="1" as="geometry"/>
                </mxCell>
                <mxCell id="m5xJV0NDWJDm3_9PE0EE-102" value="&lt;b&gt;Views.py&lt;/b&gt;&lt;br&gt;loan_book()" style="rounded=0;whiteSpace=wrap;html=1;" parent="1" vertex="1">
                    <mxGeometry x="-606.5" y="1900" width="140" height="40" as="geometry"/>
                </mxCell>
                <mxCell id="m5xJV0NDWJDm3_9PE0EE-112" style="edgeStyle=orthogonalEdgeStyle;rounded=0;orthogonalLoop=1;jettySize=auto;html=1;exitX=0.5;exitY=1;exitDx=0;exitDy=0;entryX=0.5;entryY=0;entryDx=0;entryDy=0;" parent="1" source="m5xJV0NDWJDm3_9PE0EE-103" target="m5xJV0NDWJDm3_9PE0EE-111" edge="1">
                    <mxGeometry relative="1" as="geometry">
                        <Array as="points">
                            <mxPoint x="-536" y="2010"/>
                            <mxPoint x="-395" y="2010"/>
                        </Array>
                    </mxGeometry>
                </mxCell>
                <mxCell id="m5xJV0NDWJDm3_9PE0EE-113" style="edgeStyle=orthogonalEdgeStyle;rounded=0;orthogonalLoop=1;jettySize=auto;html=1;exitX=0.5;exitY=1;exitDx=0;exitDy=0;entryX=0.5;entryY=0;entryDx=0;entryDy=0;" parent="1" source="m5xJV0NDWJDm3_9PE0EE-103" target="m5xJV0NDWJDm3_9PE0EE-108" edge="1">
                    <mxGeometry relative="1" as="geometry"/>
                </mxCell>
                <mxCell id="m5xJV0NDWJDm3_9PE0EE-114" style="edgeStyle=orthogonalEdgeStyle;rounded=0;orthogonalLoop=1;jettySize=auto;html=1;exitX=0.5;exitY=1;exitDx=0;exitDy=0;entryX=0.5;entryY=0;entryDx=0;entryDy=0;" parent="1" source="m5xJV0NDWJDm3_9PE0EE-103" target="m5xJV0NDWJDm3_9PE0EE-106" edge="1">
                    <mxGeometry relative="1" as="geometry">
                        <Array as="points">
                            <mxPoint x="-536" y="2010"/>
                            <mxPoint x="-676" y="2010"/>
                        </Array>
                    </mxGeometry>
                </mxCell>
                <mxCell id="m5xJV0NDWJDm3_9PE0EE-103" value="&lt;b&gt;legerible.py&lt;/b&gt;&lt;br&gt;make_loan()" style="rounded=0;whiteSpace=wrap;html=1;" parent="1" vertex="1">
                    <mxGeometry x="-606.5" y="1960" width="140" height="40" as="geometry"/>
                </mxCell>
                <mxCell id="m5xJV0NDWJDm3_9PE0EE-104" style="edgeStyle=orthogonalEdgeStyle;rounded=0;orthogonalLoop=1;jettySize=auto;html=1;exitX=1;exitY=0.5;exitDx=0;exitDy=0;entryX=0;entryY=0.5;entryDx=0;entryDy=0;" parent="1" source="m5xJV0NDWJDm3_9PE0EE-105" target="m5xJV0NDWJDm3_9PE0EE-102" edge="1">
                    <mxGeometry relative="1" as="geometry"/>
                </mxCell>
                <mxCell id="m5xJV0NDWJDm3_9PE0EE-105" value="&lt;b&gt;app.route('/loan_book')&lt;/b&gt;" style="rounded=0;whiteSpace=wrap;html=1;" parent="1" vertex="1">
                    <mxGeometry x="-803.5" y="1900" width="170" height="40" as="geometry"/>
                </mxCell>
                <mxCell id="m5xJV0NDWJDm3_9PE0EE-106" value="&lt;b&gt;legerible.py&lt;/b&gt;&lt;br&gt;get_select()" style="rounded=0;whiteSpace=wrap;html=1;" parent="1" vertex="1">
                    <mxGeometry x="-731.5" y="2030" width="110" height="40" as="geometry"/>
                </mxCell>
                <mxCell id="m5xJV0NDWJDm3_9PE0EE-108" value="&lt;b&gt;legerible.py&lt;/b&gt;&lt;br&gt;exec_statement()" style="rounded=0;whiteSpace=wrap;html=1;" parent="1" vertex="1">
                    <mxGeometry x="-596.5" y="2030" width="120" height="40" as="geometry"/>
                </mxCell>
                <mxCell id="m5xJV0NDWJDm3_9PE0EE-111" value="&lt;b&gt;Database.init.sql&lt;/b&gt;&lt;br&gt;new_loan()" style="rounded=0;whiteSpace=wrap;html=1;" parent="1" vertex="1">
                    <mxGeometry x="-455" y="2030" width="120" height="40" as="geometry"/>
                </mxCell>
                <mxCell id="m5xJV0NDWJDm3_9PE0EE-115" value="&lt;b&gt;&lt;u&gt;&lt;font style=&quot;font-size: 18px&quot;&gt;Loan 50 Books automatically-Prozess:&lt;/font&gt;&lt;/u&gt;&lt;/b&gt;" style="text;html=1;align=center;verticalAlign=middle;resizable=0;points=[];autosize=1;" parent="1" vertex="1">
                    <mxGeometry x="-795" y="2108" width="340" height="20" as="geometry"/>
                </mxCell>
                <mxCell id="m5xJV0NDWJDm3_9PE0EE-116" value="&lt;b&gt;success.html&lt;br&gt;- raw.html -&lt;br&gt;&lt;/b&gt;" style="rounded=0;whiteSpace=wrap;html=1;" parent="1" vertex="1">
                    <mxGeometry x="-392" y="2200" width="140" height="40" as="geometry"/>
                </mxCell>
                <mxCell id="m5xJV0NDWJDm3_9PE0EE-117" style="edgeStyle=orthogonalEdgeStyle;rounded=0;orthogonalLoop=1;jettySize=auto;html=1;exitX=0.5;exitY=1;exitDx=0;exitDy=0;entryX=0.5;entryY=0;entryDx=0;entryDy=0;" parent="1" source="m5xJV0NDWJDm3_9PE0EE-119" target="m5xJV0NDWJDm3_9PE0EE-123" edge="1">
                    <mxGeometry relative="1" as="geometry"/>
                </mxCell>
                <mxCell id="m5xJV0NDWJDm3_9PE0EE-118" style="edgeStyle=orthogonalEdgeStyle;rounded=0;orthogonalLoop=1;jettySize=auto;html=1;exitX=1;exitY=0.5;exitDx=0;exitDy=0;entryX=0;entryY=0.5;entryDx=0;entryDy=0;" parent="1" source="m5xJV0NDWJDm3_9PE0EE-119" target="m5xJV0NDWJDm3_9PE0EE-116" edge="1">
                    <mxGeometry relative="1" as="geometry"/>
                </mxCell>
                <mxCell id="m5xJV0NDWJDm3_9PE0EE-130" style="edgeStyle=orthogonalEdgeStyle;rounded=0;orthogonalLoop=1;jettySize=auto;html=1;exitX=0.5;exitY=1;exitDx=0;exitDy=0;entryX=0.5;entryY=0;entryDx=0;entryDy=0;" parent="1" source="m5xJV0NDWJDm3_9PE0EE-119" target="m5xJV0NDWJDm3_9PE0EE-129" edge="1">
                    <mxGeometry relative="1" as="geometry"/>
                </mxCell>
                <mxCell id="m5xJV0NDWJDm3_9PE0EE-119" value="&lt;b&gt;Views.py&lt;/b&gt;&lt;br&gt;generate_loan_book()" style="rounded=0;whiteSpace=wrap;html=1;" parent="1" vertex="1">
                    <mxGeometry x="-563" y="2200" width="140" height="40" as="geometry"/>
                </mxCell>
                <mxCell id="m5xJV0NDWJDm3_9PE0EE-120" style="edgeStyle=orthogonalEdgeStyle;rounded=0;orthogonalLoop=1;jettySize=auto;html=1;exitX=0.5;exitY=1;exitDx=0;exitDy=0;entryX=0.5;entryY=0;entryDx=0;entryDy=0;" parent="1" source="m5xJV0NDWJDm3_9PE0EE-123" target="m5xJV0NDWJDm3_9PE0EE-128" edge="1">
                    <mxGeometry relative="1" as="geometry">
                        <Array as="points">
                            <mxPoint x="-376.25" y="2342"/>
                            <mxPoint x="-235.25" y="2342"/>
                        </Array>
                    </mxGeometry>
                </mxCell>
                <mxCell id="m5xJV0NDWJDm3_9PE0EE-121" style="edgeStyle=orthogonalEdgeStyle;rounded=0;orthogonalLoop=1;jettySize=auto;html=1;exitX=0.5;exitY=1;exitDx=0;exitDy=0;entryX=0.5;entryY=0;entryDx=0;entryDy=0;" parent="1" source="m5xJV0NDWJDm3_9PE0EE-123" target="m5xJV0NDWJDm3_9PE0EE-127" edge="1">
                    <mxGeometry relative="1" as="geometry"/>
                </mxCell>
                <mxCell id="m5xJV0NDWJDm3_9PE0EE-122" style="edgeStyle=orthogonalEdgeStyle;rounded=0;orthogonalLoop=1;jettySize=auto;html=1;exitX=0.5;exitY=1;exitDx=0;exitDy=0;entryX=0.5;entryY=0;entryDx=0;entryDy=0;" parent="1" source="m5xJV0NDWJDm3_9PE0EE-123" target="m5xJV0NDWJDm3_9PE0EE-126" edge="1">
                    <mxGeometry relative="1" as="geometry">
                        <Array as="points">
                            <mxPoint x="-376.25" y="2342"/>
                            <mxPoint x="-516.25" y="2342"/>
                        </Array>
                    </mxGeometry>
                </mxCell>
                <mxCell id="m5xJV0NDWJDm3_9PE0EE-123" value="&lt;b&gt;legerible.py&lt;/b&gt;&lt;br&gt;generate_loan()" style="rounded=0;whiteSpace=wrap;html=1;" parent="1" vertex="1">
                    <mxGeometry x="-446.75" y="2292" width="140" height="40" as="geometry"/>
                </mxCell>
                <mxCell id="m5xJV0NDWJDm3_9PE0EE-124" style="edgeStyle=orthogonalEdgeStyle;rounded=0;orthogonalLoop=1;jettySize=auto;html=1;exitX=1;exitY=0.5;exitDx=0;exitDy=0;entryX=0;entryY=0.5;entryDx=0;entryDy=0;" parent="1" source="m5xJV0NDWJDm3_9PE0EE-125" target="m5xJV0NDWJDm3_9PE0EE-119" edge="1">
                    <mxGeometry relative="1" as="geometry"/>
                </mxCell>
                <mxCell id="m5xJV0NDWJDm3_9PE0EE-125" value="&lt;b&gt;app.route('/generate_loan_book')&lt;/b&gt;" style="rounded=0;whiteSpace=wrap;html=1;" parent="1" vertex="1">
                    <mxGeometry x="-795" y="2200" width="205" height="40" as="geometry"/>
                </mxCell>
                <mxCell id="m5xJV0NDWJDm3_9PE0EE-126" value="&lt;b&gt;legerible.py&lt;/b&gt;&lt;br&gt;get_select()" style="rounded=0;whiteSpace=wrap;html=1;" parent="1" vertex="1">
                    <mxGeometry x="-571.75" y="2362" width="110" height="40" as="geometry"/>
                </mxCell>
                <mxCell id="m5xJV0NDWJDm3_9PE0EE-127" value="&lt;b&gt;legerible.py&lt;/b&gt;&lt;br&gt;exec_statement()" style="rounded=0;whiteSpace=wrap;html=1;" parent="1" vertex="1">
                    <mxGeometry x="-436.75" y="2362" width="120" height="40" as="geometry"/>
                </mxCell>
                <mxCell id="m5xJV0NDWJDm3_9PE0EE-128" value="&lt;b&gt;Database.init.sql&lt;/b&gt;&lt;br&gt;new_loan()" style="rounded=0;whiteSpace=wrap;html=1;" parent="1" vertex="1">
                    <mxGeometry x="-295.25" y="2362" width="120" height="40" as="geometry"/>
                </mxCell>
                <mxCell id="m5xJV0NDWJDm3_9PE0EE-129" value="&lt;b&gt;legerible.py&lt;/b&gt;&lt;br&gt;get_select()" style="rounded=0;whiteSpace=wrap;html=1;" parent="1" vertex="1">
                    <mxGeometry x="-673" y="2292" width="110" height="40" as="geometry"/>
                </mxCell>
                <mxCell id="2" value="- if logged in: 50 Books are automatically loaned for the user, who is logged in at the moment&lt;br&gt;- if not logged in: 50 Books are automatically loaned for random selected users" style="text;html=1;align=left;verticalAlign=middle;resizable=0;points=[];autosize=1;" vertex="1" parent="1">
                    <mxGeometry x="-791.5" y="2140" width="510" height="30" as="geometry"/>
                </mxCell>
                <mxCell id="3" value="- only possible, if logged in" style="text;html=1;align=center;verticalAlign=middle;resizable=0;points=[];autosize=1;" vertex="1" parent="1">
                    <mxGeometry x="-798.5" y="1870" width="160" height="20" as="geometry"/>
                </mxCell>
            </root>
        </mxGraphModel>
    </diagram>
</mxfile>